<?xml version="1.0" standalone="no"?>
<!DOCTYPE svg PUBLIC "-//W3C//DTD SVG 20010904//EN"
 "http://www.w3.org/TR/2001/REC-SVG-20010904/DTD/svg10.dtd">
<svg version="1.0" xmlns="http://www.w3.org/2000/svg"
 width="700.000000pt" height="700.000000pt" viewBox="0 0 700.000000 700.000000"
 preserveAspectRatio="xMidYMid meet">
<metadata>
Created by potrace 1.14, written by Peter Selinger 2001-2017
</metadata>
<g transform="translate(0.000000,700.000000) scale(0.100000,-0.100000)"
fill="#000000" stroke="none">
<path d="M3435 6701 c-91 -22 -171 -91 -204 -177 -20 -53 -21 -74 -21 -373 l0
-318 -217 0 c-347 -1 -357 -1 -543 -39 -85 -17 -260 -90 -355 -147 -194 -117
-414 -355 -497 -535 -74 -164 -109 -274 -126 -407 -13 -98 -6 -356 12 -443 43
-202 142 -415 262 -562 224 -272 529 -439 889 -485 11 -1 145 -3 298 -4 l277
-1 0 -730 0 -730 -747 -1 c-412 0 -759 -2 -772 -5 -81 -15 -162 -80 -202 -161
-35 -71 -34 -188 3 -259 39 -74 119 -135 196 -151 15 -3 363 -6 775 -6 l747
-1 1 -315 c0 -174 2 -324 4 -334 7 -36 47 -105 80 -139 59 -58 119 -83 205
-82 117 1 207 55 263 159 21 38 22 53 25 376 l3 335 217 0 c282 -1 398 7 527
38 357 86 667 323 843 643 71 129 131 304 148 433 4 30 9 66 10 80 6 39 5 179
-1 245 -27 291 -159 575 -364 783 -103 105 -125 123 -216 184 -159 104 -350
179 -525 204 -81 12 -83 12 -372 13 l-268 1 0 730 0 729 623 3 622 3 47 23
c220 109 222 415 3 523 l-66 32 -615 0 -614 1 -1 315 c0 174 -2 324 -4 334 -5
25 -42 99 -63 122 -68 80 -188 120 -287 96z m-227 -2178 l-3 -728 -250 -2
c-271 -2 -334 5 -455 53 -269 106 -445 357 -455 649 -7 214 70 405 223 553 67
64 186 140 248 157 16 4 34 10 39 11 87 27 139 31 388 33 l267 2 -2 -728z
m1206 -1337 c261 -75 454 -270 522 -528 19 -74 26 -227 12 -295 -5 -27 -11
-59 -14 -73 -12 -57 -71 -178 -117 -239 -115 -152 -258 -245 -442 -287 -16 -4
-155 -9 -307 -11 l-278 -5 0 732 0 732 283 -5 c223 -4 294 -8 341 -21z"/>
</g>
</svg>
